<svg width="64" height="64" viewBox="0 0 64 64" fill="none" xmlns="http://www.w3.org/2000/svg">
  <!-- Background Circle -->
  <circle cx="32" cy="32" r="32" fill="#EA580C"/>
  
  <!-- Three Running Figures - Simplified silhouettes -->
  <!-- Runner 1 -->
  <g transform="translate(10, 22)">
    <circle cx="6" cy="4" r="3" fill="white"/>
    <rect x="4.5" y="7" width="3" height="5" fill="white" rx="1"/>
    <path d="M3 8 L1 4 L5 6 Z" fill="white"/>
    <path d="M9 8 L11 5 L7 6 Z" fill="white"/>
    <path d="M4.5 12 L2 18 L7 15 Z" fill="white"/>
    <path d="M7.5 12 L10 18 L5 15 Z" fill="white"/>
  </g>
  
  <!-- Runner 2 (slightly offset for movement) -->
  <g transform="translate(26, 20)">
    <circle cx="6" cy="4" r="3" fill="white"/>
    <rect x="4.5" y="7" width="3" height="5" fill="white" rx="1"/>
    <path d="M3 8 L1 4 L5 6 Z" fill="white"/>
    <path d="M9 8 L11 5 L7 6 Z" fill="white"/>
    <path d="M4.5 12 L2 18 L7 15 Z" fill="white"/>
    <path d="M7.5 12 L10 18 L5 15 Z" fill="white"/>
  </g>
  
  <!-- Runner 3 -->
  <g transform="translate(42, 22)">
    <circle cx="6" cy="4" r="3" fill="white"/>
    <rect x="4.5" y="7" width="3" height="5" fill="white" rx="1"/>
    <path d="M3 8 L1 4 L5 6 Z" fill="white"/>
    <path d="M9 8 L11 5 L7 6 Z" fill="white"/>
    <path d="M4.5 12 L2 18 L7 15 Z" fill="white"/>
    <path d="M7.5 12 L10 18 L5 15 Z" fill="white"/>
  </g>
</svg>
